<mxfile host="app.diagrams.net" modified="2023-11-12T15:04:36.762Z" agent="Mozilla/5.0 (Windows NT 10.0; Win64; x64) AppleWebKit/537.36 (KHTML, like Gecko) Chrome/119.0.0.0 Safari/537.36 Edg/119.0.0.0" etag="IgPNgpdLI1hVHWqX3JAr" version="22.1.0" type="github">
  <diagram id="C5RBs43oDa-KdzZeNtuy" name="Page-1">
    <mxGraphModel dx="2588" dy="891" grid="1" gridSize="10" guides="1" tooltips="1" connect="1" arrows="1" fold="1" page="1" pageScale="1" pageWidth="827" pageHeight="1169" math="0" shadow="0">
      <root>
        <mxCell id="WIyWlLk6GJQsqaUBKTNV-0" />
        <mxCell id="WIyWlLk6GJQsqaUBKTNV-1" parent="WIyWlLk6GJQsqaUBKTNV-0" />
        <mxCell id="wLdN1BDxr4_QfgTx57xr-34" style="edgeStyle=orthogonalEdgeStyle;rounded=0;orthogonalLoop=1;jettySize=auto;html=1;exitX=0.5;exitY=0;exitDx=0;exitDy=0;entryX=0;entryY=0.5;entryDx=0;entryDy=0;" edge="1" parent="WIyWlLk6GJQsqaUBKTNV-1" source="wLdN1BDxr4_QfgTx57xr-0" target="wLdN1BDxr4_QfgTx57xr-14">
          <mxGeometry relative="1" as="geometry">
            <Array as="points">
              <mxPoint x="-380" y="270" />
              <mxPoint x="-680" y="270" />
              <mxPoint x="-680" y="491" />
            </Array>
          </mxGeometry>
        </mxCell>
        <mxCell id="wLdN1BDxr4_QfgTx57xr-42" style="edgeStyle=orthogonalEdgeStyle;rounded=0;orthogonalLoop=1;jettySize=auto;html=1;exitX=0.5;exitY=0;exitDx=0;exitDy=0;entryX=0;entryY=0.5;entryDx=0;entryDy=0;" edge="1" parent="WIyWlLk6GJQsqaUBKTNV-1" source="wLdN1BDxr4_QfgTx57xr-0" target="wLdN1BDxr4_QfgTx57xr-36">
          <mxGeometry relative="1" as="geometry" />
        </mxCell>
        <mxCell id="wLdN1BDxr4_QfgTx57xr-0" value="serial" style="swimlane;fontStyle=1;align=center;verticalAlign=top;childLayout=stackLayout;horizontal=1;startSize=26;horizontalStack=0;resizeParent=1;resizeParentMax=0;resizeLast=0;collapsible=1;marginBottom=0;whiteSpace=wrap;html=1;" vertex="1" parent="WIyWlLk6GJQsqaUBKTNV-1">
          <mxGeometry x="-460" y="290" width="160" height="112" as="geometry" />
        </mxCell>
        <mxCell id="wLdN1BDxr4_QfgTx57xr-1" value="" style="line;strokeWidth=1;fillColor=none;align=left;verticalAlign=middle;spacingTop=-1;spacingLeft=3;spacingRight=3;rotatable=0;labelPosition=right;points=[];portConstraint=eastwest;strokeColor=inherit;" vertex="1" parent="wLdN1BDxr4_QfgTx57xr-0">
          <mxGeometry y="26" width="160" height="8" as="geometry" />
        </mxCell>
        <mxCell id="wLdN1BDxr4_QfgTx57xr-2" value="+ write()" style="text;strokeColor=none;fillColor=none;align=left;verticalAlign=top;spacingLeft=4;spacingRight=4;overflow=hidden;rotatable=0;points=[[0,0.5],[1,0.5]];portConstraint=eastwest;whiteSpace=wrap;html=1;" vertex="1" parent="wLdN1BDxr4_QfgTx57xr-0">
          <mxGeometry y="34" width="160" height="26" as="geometry" />
        </mxCell>
        <mxCell id="wLdN1BDxr4_QfgTx57xr-3" value="+ read()" style="text;strokeColor=none;fillColor=none;align=left;verticalAlign=top;spacingLeft=4;spacingRight=4;overflow=hidden;rotatable=0;points=[[0,0.5],[1,0.5]];portConstraint=eastwest;whiteSpace=wrap;html=1;" vertex="1" parent="wLdN1BDxr4_QfgTx57xr-0">
          <mxGeometry y="60" width="160" height="26" as="geometry" />
        </mxCell>
        <mxCell id="wLdN1BDxr4_QfgTx57xr-4" value="+ open()" style="text;strokeColor=none;fillColor=none;align=left;verticalAlign=top;spacingLeft=4;spacingRight=4;overflow=hidden;rotatable=0;points=[[0,0.5],[1,0.5]];portConstraint=eastwest;whiteSpace=wrap;html=1;" vertex="1" parent="wLdN1BDxr4_QfgTx57xr-0">
          <mxGeometry y="86" width="160" height="26" as="geometry" />
        </mxCell>
        <mxCell id="wLdN1BDxr4_QfgTx57xr-5" value="end_effector_lf_radio_frequency" style="swimlane;fontStyle=1;align=center;verticalAlign=top;childLayout=stackLayout;horizontal=1;startSize=26;horizontalStack=0;resizeParent=1;resizeParentMax=0;resizeLast=0;collapsible=1;marginBottom=0;whiteSpace=wrap;html=1;" vertex="1" parent="WIyWlLk6GJQsqaUBKTNV-1">
          <mxGeometry x="120" y="390" width="475" height="112" as="geometry" />
        </mxCell>
        <mxCell id="wLdN1BDxr4_QfgTx57xr-6" value="+ _lfrf:LFRadioFrequency" style="text;strokeColor=none;fillColor=none;align=left;verticalAlign=top;spacingLeft=4;spacingRight=4;overflow=hidden;rotatable=0;points=[[0,0.5],[1,0.5]];portConstraint=eastwest;whiteSpace=wrap;html=1;" vertex="1" parent="wLdN1BDxr4_QfgTx57xr-5">
          <mxGeometry y="26" width="475" height="26" as="geometry" />
        </mxCell>
        <mxCell id="wLdN1BDxr4_QfgTx57xr-7" value="+ _hmSetData: std::unordered_map&amp;lt;std::string,EndEffectorValueType&amp;gt;" style="text;strokeColor=none;fillColor=none;align=left;verticalAlign=top;spacingLeft=4;spacingRight=4;overflow=hidden;rotatable=0;points=[[0,0.5],[1,0.5]];portConstraint=eastwest;whiteSpace=wrap;html=1;" vertex="1" parent="wLdN1BDxr4_QfgTx57xr-5">
          <mxGeometry y="52" width="475" height="26" as="geometry" />
        </mxCell>
        <mxCell id="wLdN1BDxr4_QfgTx57xr-9" value="" style="line;strokeWidth=1;fillColor=none;align=left;verticalAlign=middle;spacingTop=-1;spacingLeft=3;spacingRight=3;rotatable=0;labelPosition=right;points=[];portConstraint=eastwest;strokeColor=inherit;" vertex="1" parent="wLdN1BDxr4_QfgTx57xr-5">
          <mxGeometry y="78" width="475" height="8" as="geometry" />
        </mxCell>
        <mxCell id="wLdN1BDxr4_QfgTx57xr-10" value="+ method(type): type" style="text;strokeColor=none;fillColor=none;align=left;verticalAlign=top;spacingLeft=4;spacingRight=4;overflow=hidden;rotatable=0;points=[[0,0.5],[1,0.5]];portConstraint=eastwest;whiteSpace=wrap;html=1;" vertex="1" parent="wLdN1BDxr4_QfgTx57xr-5">
          <mxGeometry y="86" width="475" height="26" as="geometry" />
        </mxCell>
        <mxCell id="wLdN1BDxr4_QfgTx57xr-33" style="edgeStyle=orthogonalEdgeStyle;rounded=0;orthogonalLoop=1;jettySize=auto;html=1;exitX=0.5;exitY=0;exitDx=0;exitDy=0;entryX=1;entryY=0.5;entryDx=0;entryDy=0;" edge="1" parent="WIyWlLk6GJQsqaUBKTNV-1" source="wLdN1BDxr4_QfgTx57xr-12" target="wLdN1BDxr4_QfgTx57xr-10">
          <mxGeometry relative="1" as="geometry" />
        </mxCell>
        <mxCell id="wLdN1BDxr4_QfgTx57xr-12" value="&lt;p style=&quot;margin:0px;margin-top:4px;text-align:center;&quot;&gt;&lt;i&gt;&amp;lt;&amp;lt;Interface&amp;gt;&amp;gt;&lt;/i&gt;&lt;br&gt;&lt;b&gt;end_effector&lt;/b&gt;&lt;/p&gt;&lt;p style=&quot;margin:0px;margin-left:4px;&quot;&gt;&lt;br&gt;&lt;/p&gt;&lt;hr size=&quot;1&quot;&gt;&lt;p style=&quot;margin:0px;margin-left:4px;&quot;&gt;+ open(): EndEffectorResult&lt;br&gt;+ close(): EndEffectorResult&lt;/p&gt;&lt;p style=&quot;margin:0px;margin-left:4px;&quot;&gt;+ start(): EndEffectorResult&lt;/p&gt;&lt;p style=&quot;margin:0px;margin-left:4px;&quot;&gt;+ stop():EndEffecotResult&lt;/p&gt;&lt;p style=&quot;margin:0px;margin-left:4px;&quot;&gt;+ get_param(const std::string&amp;amp; key):std::optional&amp;lt;&amp;gt;&lt;/p&gt;&lt;p style=&quot;margin:0px;margin-left:4px;&quot;&gt;+ set_param(const std::string&amp;amp; key,const EndEffectorType&amp;amp; value)&lt;/p&gt;&lt;p style=&quot;margin:0px;margin-left:4px;&quot;&gt;+ set_params(const std::unordered_map&amp;lt;std::string,EndEffectorValueType&amp;gt;&amp;amp; param):&lt;/p&gt;&lt;p style=&quot;margin:0px;margin-left:4px;&quot;&gt;+ get_latest_data():std::std::unordered_map&amp;lt;std::string,EndEffectorValueType&amp;gt;&lt;/p&gt;&lt;p style=&quot;margin:0px;margin-left:4px;&quot;&gt;+ get_latest_data(const std::string&amp;amp; key):std::optional&amp;lt;&amp;gt;&lt;/p&gt;" style="verticalAlign=top;align=left;overflow=fill;fontSize=12;fontFamily=Helvetica;html=1;whiteSpace=wrap;" vertex="1" parent="WIyWlLk6GJQsqaUBKTNV-1">
          <mxGeometry x="70" y="650" width="490" height="200" as="geometry" />
        </mxCell>
        <mxCell id="wLdN1BDxr4_QfgTx57xr-32" style="edgeStyle=orthogonalEdgeStyle;rounded=0;orthogonalLoop=1;jettySize=auto;html=1;exitX=0.5;exitY=0;exitDx=0;exitDy=0;entryX=0;entryY=0.5;entryDx=0;entryDy=0;" edge="1" parent="WIyWlLk6GJQsqaUBKTNV-1" source="wLdN1BDxr4_QfgTx57xr-13" target="wLdN1BDxr4_QfgTx57xr-6">
          <mxGeometry relative="1" as="geometry" />
        </mxCell>
        <mxCell id="wLdN1BDxr4_QfgTx57xr-13" value="LFRadioFrequency" style="swimlane;fontStyle=1;align=center;verticalAlign=top;childLayout=stackLayout;horizontal=1;startSize=26;horizontalStack=0;resizeParent=1;resizeParentMax=0;resizeLast=0;collapsible=1;marginBottom=0;whiteSpace=wrap;html=1;" vertex="1" parent="WIyWlLk6GJQsqaUBKTNV-1">
          <mxGeometry x="-590" y="454" width="440" height="420" as="geometry" />
        </mxCell>
        <mxCell id="wLdN1BDxr4_QfgTx57xr-14" value="+ serial_:Serial" style="text;strokeColor=none;fillColor=none;align=left;verticalAlign=top;spacingLeft=4;spacingRight=4;overflow=hidden;rotatable=0;points=[[0,0.5],[1,0.5]];portConstraint=eastwest;whiteSpace=wrap;html=1;" vertex="1" parent="wLdN1BDxr4_QfgTx57xr-13">
          <mxGeometry y="26" width="440" height="22" as="geometry" />
        </mxCell>
        <mxCell id="wLdN1BDxr4_QfgTx57xr-15" value="+ _poll_thread: std::thread" style="text;strokeColor=none;fillColor=none;align=left;verticalAlign=top;spacingLeft=4;spacingRight=4;overflow=hidden;rotatable=0;points=[[0,0.5],[1,0.5]];portConstraint=eastwest;whiteSpace=wrap;html=1;" vertex="1" parent="wLdN1BDxr4_QfgTx57xr-13">
          <mxGeometry y="48" width="440" height="26" as="geometry" />
        </mxCell>
        <mxCell id="wLdN1BDxr4_QfgTx57xr-16" value="+ _device_data: std::unordered_map&amp;lt;std::string,int&amp;gt;" style="text;strokeColor=none;fillColor=none;align=left;verticalAlign=top;spacingLeft=4;spacingRight=4;overflow=hidden;rotatable=0;points=[[0,0.5],[1,0.5]];portConstraint=eastwest;whiteSpace=wrap;html=1;" vertex="1" parent="wLdN1BDxr4_QfgTx57xr-13">
          <mxGeometry y="74" width="440" height="26" as="geometry" />
        </mxCell>
        <mxCell id="wLdN1BDxr4_QfgTx57xr-17" value="+ _mutex: std::mutex" style="text;strokeColor=none;fillColor=none;align=left;verticalAlign=top;spacingLeft=4;spacingRight=4;overflow=hidden;rotatable=0;points=[[0,0.5],[1,0.5]];portConstraint=eastwest;whiteSpace=wrap;html=1;" vertex="1" parent="wLdN1BDxr4_QfgTx57xr-13">
          <mxGeometry y="100" width="440" height="26" as="geometry" />
        </mxCell>
        <mxCell id="wLdN1BDxr4_QfgTx57xr-18" value="" style="line;strokeWidth=1;fillColor=none;align=left;verticalAlign=middle;spacingTop=-1;spacingLeft=3;spacingRight=3;rotatable=0;labelPosition=right;points=[];portConstraint=eastwest;strokeColor=inherit;" vertex="1" parent="wLdN1BDxr4_QfgTx57xr-13">
          <mxGeometry y="126" width="440" height="8" as="geometry" />
        </mxCell>
        <mxCell id="wLdN1BDxr4_QfgTx57xr-19" value="+ open()" style="text;strokeColor=none;fillColor=none;align=left;verticalAlign=top;spacingLeft=4;spacingRight=4;overflow=hidden;rotatable=0;points=[[0,0.5],[1,0.5]];portConstraint=eastwest;whiteSpace=wrap;html=1;" vertex="1" parent="wLdN1BDxr4_QfgTx57xr-13">
          <mxGeometry y="134" width="440" height="26" as="geometry" />
        </mxCell>
        <mxCell id="wLdN1BDxr4_QfgTx57xr-20" value="+ close()&lt;br&gt;" style="text;strokeColor=none;fillColor=none;align=left;verticalAlign=top;spacingLeft=4;spacingRight=4;overflow=hidden;rotatable=0;points=[[0,0.5],[1,0.5]];portConstraint=eastwest;whiteSpace=wrap;html=1;" vertex="1" parent="wLdN1BDxr4_QfgTx57xr-13">
          <mxGeometry y="160" width="440" height="26" as="geometry" />
        </mxCell>
        <mxCell id="wLdN1BDxr4_QfgTx57xr-21" value="+ is_open(): bool" style="text;strokeColor=none;fillColor=none;align=left;verticalAlign=top;spacingLeft=4;spacingRight=4;overflow=hidden;rotatable=0;points=[[0,0.5],[1,0.5]];portConstraint=eastwest;whiteSpace=wrap;html=1;" vertex="1" parent="wLdN1BDxr4_QfgTx57xr-13">
          <mxGeometry y="186" width="440" height="26" as="geometry" />
        </mxCell>
        <mxCell id="wLdN1BDxr4_QfgTx57xr-22" value="+ sn(): std::string" style="text;strokeColor=none;fillColor=none;align=left;verticalAlign=top;spacingLeft=4;spacingRight=4;overflow=hidden;rotatable=0;points=[[0,0.5],[1,0.5]];portConstraint=eastwest;whiteSpace=wrap;html=1;" vertex="1" parent="wLdN1BDxr4_QfgTx57xr-13">
          <mxGeometry y="212" width="440" height="26" as="geometry" />
        </mxCell>
        <mxCell id="wLdN1BDxr4_QfgTx57xr-23" value="+ set_working_status(int,int,int,int): bool" style="text;strokeColor=none;fillColor=none;align=left;verticalAlign=top;spacingLeft=4;spacingRight=4;overflow=hidden;rotatable=0;points=[[0,0.5],[1,0.5]];portConstraint=eastwest;whiteSpace=wrap;html=1;" vertex="1" parent="wLdN1BDxr4_QfgTx57xr-13">
          <mxGeometry y="238" width="440" height="26" as="geometry" />
        </mxCell>
        <mxCell id="wLdN1BDxr4_QfgTx57xr-24" value="+ device_status(): vector&amp;lt;uint8_t&amp;gt;" style="text;strokeColor=none;fillColor=none;align=left;verticalAlign=top;spacingLeft=4;spacingRight=4;overflow=hidden;rotatable=0;points=[[0,0.5],[1,0.5]];portConstraint=eastwest;whiteSpace=wrap;html=1;" vertex="1" parent="wLdN1BDxr4_QfgTx57xr-13">
          <mxGeometry y="264" width="440" height="26" as="geometry" />
        </mxCell>
        <mxCell id="wLdN1BDxr4_QfgTx57xr-25" value="+ set_working_time(int,int): vecotor&amp;lt;uint8_t&amp;gt;" style="text;strokeColor=none;fillColor=none;align=left;verticalAlign=top;spacingLeft=4;spacingRight=4;overflow=hidden;rotatable=0;points=[[0,0.5],[1,0.5]];portConstraint=eastwest;whiteSpace=wrap;html=1;" vertex="1" parent="wLdN1BDxr4_QfgTx57xr-13">
          <mxGeometry y="290" width="440" height="26" as="geometry" />
        </mxCell>
        <mxCell id="wLdN1BDxr4_QfgTx57xr-26" value="+ heart_beat: void" style="text;strokeColor=none;fillColor=none;align=left;verticalAlign=top;spacingLeft=4;spacingRight=4;overflow=hidden;rotatable=0;points=[[0,0.5],[1,0.5]];portConstraint=eastwest;whiteSpace=wrap;html=1;" vertex="1" parent="wLdN1BDxr4_QfgTx57xr-13">
          <mxGeometry y="316" width="440" height="26" as="geometry" />
        </mxCell>
        <mxCell id="wLdN1BDxr4_QfgTx57xr-27" value="+ get_device_data: hashmap&amp;lt;string,int&amp;gt;" style="text;strokeColor=none;fillColor=none;align=left;verticalAlign=top;spacingLeft=4;spacingRight=4;overflow=hidden;rotatable=0;points=[[0,0.5],[1,0.5]];portConstraint=eastwest;whiteSpace=wrap;html=1;" vertex="1" parent="wLdN1BDxr4_QfgTx57xr-13">
          <mxGeometry y="342" width="440" height="26" as="geometry" />
        </mxCell>
        <mxCell id="wLdN1BDxr4_QfgTx57xr-28" value="+ send_and_receive(const vector&amp;lt;uint8_t&amp;gt;&amp;amp;): optional&amp;lt;vector&amp;lt;uint8_t&amp;gt;&amp;gt;" style="text;strokeColor=none;fillColor=none;align=left;verticalAlign=top;spacingLeft=4;spacingRight=4;overflow=hidden;rotatable=0;points=[[0,0.5],[1,0.5]];portConstraint=eastwest;whiteSpace=wrap;html=1;" vertex="1" parent="wLdN1BDxr4_QfgTx57xr-13">
          <mxGeometry y="368" width="440" height="26" as="geometry" />
        </mxCell>
        <mxCell id="wLdN1BDxr4_QfgTx57xr-29" value="+ check_sum: uint8_t" style="text;strokeColor=none;fillColor=none;align=left;verticalAlign=top;spacingLeft=4;spacingRight=4;overflow=hidden;rotatable=0;points=[[0,0.5],[1,0.5]];portConstraint=eastwest;whiteSpace=wrap;html=1;" vertex="1" parent="wLdN1BDxr4_QfgTx57xr-13">
          <mxGeometry y="394" width="440" height="26" as="geometry" />
        </mxCell>
        <mxCell id="wLdN1BDxr4_QfgTx57xr-35" value="iDriver" style="swimlane;fontStyle=1;align=center;verticalAlign=top;childLayout=stackLayout;horizontal=1;startSize=26;horizontalStack=0;resizeParent=1;resizeParentMax=0;resizeLast=0;collapsible=1;marginBottom=0;whiteSpace=wrap;html=1;" vertex="1" parent="WIyWlLk6GJQsqaUBKTNV-1">
          <mxGeometry x="-230" y="170" width="240" height="164" as="geometry" />
        </mxCell>
        <mxCell id="wLdN1BDxr4_QfgTx57xr-36" value="+&amp;nbsp;serial_:serial::Serial" style="text;strokeColor=none;fillColor=none;align=left;verticalAlign=top;spacingLeft=4;spacingRight=4;overflow=hidden;rotatable=0;points=[[0,0.5],[1,0.5]];portConstraint=eastwest;whiteSpace=wrap;html=1;" vertex="1" parent="wLdN1BDxr4_QfgTx57xr-35">
          <mxGeometry y="26" width="240" height="26" as="geometry" />
        </mxCell>
        <mxCell id="wLdN1BDxr4_QfgTx57xr-37" value="" style="line;strokeWidth=1;fillColor=none;align=left;verticalAlign=middle;spacingTop=-1;spacingLeft=3;spacingRight=3;rotatable=0;labelPosition=right;points=[];portConstraint=eastwest;strokeColor=inherit;" vertex="1" parent="wLdN1BDxr4_QfgTx57xr-35">
          <mxGeometry y="52" width="240" height="8" as="geometry" />
        </mxCell>
        <mxCell id="wLdN1BDxr4_QfgTx57xr-38" value="+ open():void" style="text;strokeColor=none;fillColor=none;align=left;verticalAlign=top;spacingLeft=4;spacingRight=4;overflow=hidden;rotatable=0;points=[[0,0.5],[1,0.5]];portConstraint=eastwest;whiteSpace=wrap;html=1;" vertex="1" parent="wLdN1BDxr4_QfgTx57xr-35">
          <mxGeometry y="60" width="240" height="26" as="geometry" />
        </mxCell>
        <mxCell id="wLdN1BDxr4_QfgTx57xr-39" value="+ is_open(): bool" style="text;strokeColor=none;fillColor=none;align=left;verticalAlign=top;spacingLeft=4;spacingRight=4;overflow=hidden;rotatable=0;points=[[0,0.5],[1,0.5]];portConstraint=eastwest;whiteSpace=wrap;html=1;" vertex="1" parent="wLdN1BDxr4_QfgTx57xr-35">
          <mxGeometry y="86" width="240" height="26" as="geometry" />
        </mxCell>
        <mxCell id="wLdN1BDxr4_QfgTx57xr-40" value="+ is_device_ready():bool&amp;nbsp;" style="text;strokeColor=none;fillColor=none;align=left;verticalAlign=top;spacingLeft=4;spacingRight=4;overflow=hidden;rotatable=0;points=[[0,0.5],[1,0.5]];portConstraint=eastwest;whiteSpace=wrap;html=1;" vertex="1" parent="wLdN1BDxr4_QfgTx57xr-35">
          <mxGeometry y="112" width="240" height="26" as="geometry" />
        </mxCell>
        <mxCell id="wLdN1BDxr4_QfgTx57xr-41" value="+ close(): void" style="text;strokeColor=none;fillColor=none;align=left;verticalAlign=top;spacingLeft=4;spacingRight=4;overflow=hidden;rotatable=0;points=[[0,0.5],[1,0.5]];portConstraint=eastwest;whiteSpace=wrap;html=1;" vertex="1" parent="wLdN1BDxr4_QfgTx57xr-35">
          <mxGeometry y="138" width="240" height="26" as="geometry" />
        </mxCell>
      </root>
    </mxGraphModel>
  </diagram>
</mxfile>
